<svg width="64" height="28" viewBox="0 0 64 28" fill="none" xmlns="http://www.w3.org/2000/svg">
<path d="M46.9163 2.87217L43.0922 10.0373C41.6487 8.82737 39.8862 7.93682 37.6373 7.93682C32.3155 7.93682 30.1538 12.0319 30.1538 14.9165C30.1538 17.0576 31.512 20.2168 36.2473 20.2168C38.2348 20.2168 41.0605 18.7894 41.8737 18.14L38.0914 26.4527C36.2886 26.824 35.6964 27.0542 34.1703 27.103C25.695 27.364 22.2702 21.9896 22.2727 16.4976C22.2783 9.2376 28.5313 0.408207 38.8971 0.408207C39.5324 0.408207 40.3093 0.634958 40.9735 0.886228L41.6448 0" fill="#0060AF"/>
<path d="M62.6957 0.225098L63.7786 26.2673H55.7194L55.7147 21.8009H50.2193L48.4106 26.2673H39.6704L48.808 7.67092L46.7475 7.65708L50.6625 0.225098H62.6957ZM55.6624 8.19193L52.5554 15.7667H55.756" fill="#0060AF"/>
<path d="M17.1848 0.22559C21.1758 0.248667 23.4311 2.48501 23.4311 5.71548C23.4311 8.69352 21.0526 11.3297 18.4415 12.6928C21.1297 13.7129 21.3622 16.2169 21.3622 17.9885C21.3622 22.2685 17.2018 26.2678 11.7939 26.2678H0L4.60053 7.93047L2.7108 7.91922L6.57382 0.22559C6.57382 0.22559 13.9394 0.20251 17.1848 0.22559ZM13.2692 10.7842C14.0947 10.7842 15.5524 10.5684 15.9169 8.9191C16.3162 7.12877 14.9482 7.08059 14.292 7.08059L11.9473 7.06999L11.1296 10.7843L13.2692 10.7842ZM9.95422 15.3861L8.87465 19.6661H11.6355C12.7217 19.6661 14.2021 19.1096 14.5648 17.7168C14.9231 16.3199 13.8882 15.3861 12.8059 15.3861" fill="#0060AF"/>
</svg>
