<svg xmlns="http://www.w3.org/2000/svg" viewBox="0 0 283.5 274.3" style="enable-background:new 0 0 283.5 274.3" xml:space="preserve">
    <g transform="translate(67.053 1.125)">
        <circle cx="73.3" cy="83.9" r="85" style="fill:#00aed6"/>
        <path d="M122.9 81.4c-.7-10.6-9.9-19.1-20.6-18.4H48.5c-2.1 0-3.5-1.4-3.5-3.5s1.4-3.5 3.5-3.5H103c-.4-7.1-5.7-14.5-12.4-15.6-15.9-2.8-32.2-2.8-47.8 0-8.9 1.4-15.6 10.3-17 18.8-2.5 16.7-2.5 33.6 0 50.3 1.8 9.6 9.6 17.4 19.5 18.8 19.8 2.5 39.7 2.5 59.2 0 8.9-1.1 14.5-9.2 16.3-17.7 1.7-10 2.4-19.6 2.1-29.2zm-17.7 11.7v3.2c0 2.1-1.4 3.5-3.5 3.5s-3.5-1.4-3.5-3.5v-3.2c-1.1-1.1-1.8-2.5-1.8-3.9 0-2.8 2.5-5.3 5.3-5.3s5.3 2.5 5.3 5.3c-.1 1.4-.8 2.9-1.8 3.9z" style="fill-rule:evenodd;clip-rule:evenodd;fill:#fff"/>
    </g>
    <path d="M12.1 255.1c3.5 5.3 9.6 8.2 15.9 7.8 7.4 0 12.8-4.6 12.8-11v-3.5c-3.9 3.9-9.6 6-15.2 5.7C11.7 254.4.4 243.8 0 230c-.4-13.8 10.3-25.2 24.1-25.5h1.1c5.7-.4 11.3 1.8 15.6 5.7v-4.6h12.8v46.1c0 13.5-10.6 22.7-25.5 22.7-9.9.7-19.1-3.5-25.5-11.3l9.5-8zm28.3-28.7c0-5.3-6-10.3-12.8-10.3-8.5 0-14.2 5.3-14.2 13.1-.4 6.7 4.6 12.8 11.7 13.5h2.1c7.4 0 13.5-4.6 13.5-10.3v-6h-.3zm46.4-22.3c15.6 0 26.6 11 26.6 25.2s-11.3 25.2-26.6 25.2c-13.8.7-25.9-9.9-26.6-23.7-.7-13.8 9.6-25.9 23.4-26.6 0-.1 3.2-.1 3.2-.1zm0 11.7c-7.4 0-13.5 6-13.5 13.5 0 7.4 6 13.5 13.5 13.5 7.4 0 13.5-6 13.5-13.5.4-7.1-5.3-13.1-12-13.5h-1.5zm34-10.3h12.8v4.3h.4c4.3-3.9 9.6-5.7 15.2-5.7 13.8.4 24.8 11.7 24.4 25.5-.3 13.4-11.1 24.2-24.4 24.4-5.4 0-10.6-1.8-14.9-5h-.4v23.7h-13.1v-67.2zm25.9 10.3c-7.1 0-12.8 5-12.8 10.3v6c0 5.7 5.7 10.3 13.1 10.3 7.4 0 13.5-6 13.1-13.5.1-7.1-6-13.1-13.4-13.1zm51.7 8.8c8.5-1.1 11.3-2.5 11.3-5 0-3.2-3.2-5-8.5-5-5.3-.4-10.6 3.2-11.7 8.5l-12.4-2.5c1.8-9.6 11.7-16.7 24.1-16.7 13.8 0 22.3 7.1 22.3 18.4v30.1h-12.4v-5.3c-3.9 4.6-9.9 7.1-15.9 6.4-10.3 0-17.7-5.7-17.7-14.2 0-8.3 5.7-12.5 20.9-14.7zm12.1 5c-1.4 1.8-3.9 2.8-10.3 3.9-7.8 1.4-10.6 2.8-10.6 5.7 0 2.8 2.5 4.3 7.4 4.3 7.4 0 13.5-3.5 13.5-8.2v-5.7zm36.5 20.5-21.6-44.6h14.5l14.5 30.8h.4l14.2-30.8h14.5l-32.6 67.3H236l11-22.7z"/>
</svg>
