<svg width="126" height="173" viewBox="0 0 126 173" fill="none" xmlns="http://www.w3.org/2000/svg">
<path d="M107.886 0.409536C99.1637 -1.38167 90.0909 2.81724 85.4987 10.7652C84.4145 12.648 83.6331 14.6725 83.1388 16.7553C81.1138 8.64906 74.7437 2.07577 66.6515 0.409536C57.9295 -1.38167 48.8487 2.81724 44.2565 10.7652C43.1723 12.648 42.3909 14.6725 41.8966 16.7553C39.8636 8.65739 33.5015 2.07577 25.4093 0.409536C16.6873 -1.38167 7.60655 2.81724 3.01434 10.7652C-1.59382 18.7464 -0.860342 29.2104 4.81614 36.4002C10.4846 43.5816 20.0916 46.3726 28.4868 43.2151C35.1758 40.6991 40.1666 34.7506 41.9046 27.7191C42.654 30.8516 44.0333 33.8342 46.0583 36.4002C51.7268 43.5816 61.3338 46.3726 69.729 43.2151C76.4179 40.6991 81.4088 34.7506 83.1468 27.7191C83.8962 30.8516 85.2755 33.8342 87.3005 36.4002C92.969 43.5816 102.576 46.3726 110.971 43.2151C119.334 40.0659 125.067 31.5431 125.067 22.2539C125.059 11.7649 117.748 2.44234 107.886 0.409536Z" fill="#FDAF27"/>
<path d="M39.8369 108.553C42.0054 118.243 47.5304 127.282 57.2012 130.048C66.3856 132.672 76.6224 128.415 81.3502 119.726C84.1884 114.51 83.8296 108.612 83.8057 102.838C83.7898 98.9477 83.7658 95.0653 83.7738 91.1747C83.7738 86.8925 83.7738 82.6102 83.7977 78.3364C83.8217 72.8544 83.6702 67.5308 86.2852 62.5571C89.8968 55.6756 97.0801 51.4434 104.582 51.7516C112.156 52.0682 119.06 57.0336 122.074 64.3067C124.075 69.1388 123.732 74.3791 123.748 79.5194C123.764 83.7599 123.764 88.0088 123.764 92.2494C123.764 101.414 124.314 110.97 122.608 119.992C118.662 140.878 104.813 159.057 86.046 167.43C67.2785 175.803 45.051 173.562 28.1331 161.648C19.7938 155.775 12.9215 147.652 8.39302 138.262C3.9204 128.973 1.20972 117.368 2.92383 106.971C4.20742 99.2226 10.0673 92.8909 17.4419 91.308C25.1036 89.6667 33.124 93.3658 37.1182 100.389C38.5693 102.93 39.1991 105.696 39.8369 108.553Z" fill="#FDAF27"/>
</svg>
